<svg version="1.1" id="Layer_1" xmlns="http://www.w3.org/2000/svg" xmlns:xlink="http://www.w3.org/1999/xlink" x="0px" y="0px"
	 width="100%" viewBox="0 0 2317 1500" enable-background="new 0 0 2317 1500" xml:space="preserve">
<path fill="#FFFFFF" opacity="1.000000" stroke="none" 
	d="
M1247.000000,1501.000000 
	C831.333313,1501.000000 416.166656,1501.000000 1.000000,1501.000000 
	C1.000000,1001.000000 1.000000,501.000000 1.000000,1.000000 
	C773.333313,1.000000 1545.666626,1.000000 2318.000000,1.000000 
	C2318.000000,501.000000 2318.000000,1001.000000 2318.000000,1501.000000 
	C1961.166626,1501.000000 1604.333374,1501.000000 1247.000000,1501.000000 
M1091.804688,1083.659424 
	C1091.725952,1083.334351 1091.531616,1083.109497 1091.128052,1082.210327 
	C1088.602173,1077.620972 1086.856079,1072.317505 1083.418457,1068.562988 
	C1066.443237,1050.023682 1034.063354,1051.434692 1016.376709,1071.120605 
	C1004.862366,1082.075928 1001.818359,1095.843506 1003.162781,1111.848877 
	C1003.724609,1114.763184 1004.056946,1117.744507 1004.885986,1120.580688 
	C1010.037354,1138.203491 1022.171997,1148.567627 1039.304810,1154.051514 
	C1056.458496,1159.542114 1077.583130,1152.910034 1087.826416,1136.969849 
	C1093.814819,1127.650635 1099.253784,1117.977051 1104.896484,1108.437256 
	C1108.927002,1101.622681 1112.885254,1094.765259 1117.250854,1087.369507 
	C1123.970825,1080.032349 1130.690918,1072.695190 1138.095825,1065.122681 
	C1148.201660,1059.672485 1155.586182,1061.244507 1162.446167,1070.390259 
	C1164.242554,1072.785034 1165.768677,1075.383179 1167.577026,1077.768188 
	C1170.373901,1081.456787 1174.150635,1082.251221 1178.271118,1080.534546 
	C1182.357056,1078.832275 1184.386353,1075.056885 1183.006714,1071.212280 
	C1181.647827,1067.425415 1179.204468,1063.175781 1175.972778,1061.060791 
	C1162.165405,1052.024292 1148.578491,1053.783813 1135.060791,1063.823608 
	C1132.841797,1065.080811 1130.622681,1066.338013 1127.762695,1067.958374 
	C1127.762695,1063.898071 1127.762695,1060.640747 1127.762695,1056.524658 
	C1119.630005,1058.244995 1112.065186,1059.845215 1103.328613,1061.693237 
	C1111.008179,1066.687500 1113.039062,1072.898926 1112.201416,1080.409058 
	C1111.927979,1082.859253 1112.241821,1085.374756 1112.051880,1088.563599 
	C1109.204346,1093.798706 1106.516113,1099.128174 1103.478271,1104.250366 
	C1095.547607,1117.622192 1088.108154,1131.300415 1077.125977,1142.635742 
	C1062.768921,1157.454468 1042.259155,1152.647949 1030.920776,1139.209473 
	C1024.463135,1131.555786 1021.458862,1122.657104 1019.970276,1112.107910 
	C1019.976990,1108.788696 1020.228516,1105.447266 1019.931885,1102.155396 
	C1019.508118,1097.451538 1021.142029,1095.785400 1026.056274,1095.846558 
	C1046.301025,1096.098877 1066.550903,1095.983154 1086.798706,1095.930664 
	C1088.544678,1095.926147 1090.289429,1095.391724 1092.673462,1094.537598 
	C1092.589233,1091.640747 1092.504883,1088.743896 1092.573730,1085.366699 
	C1092.324829,1084.951782 1092.075806,1084.536865 1091.804688,1083.659424 
M991.561584,1069.610229 
	C995.855530,1065.041870 1000.149475,1060.473511 1004.060791,1056.312256 
	C998.607483,1056.312256 992.163757,1056.312256 984.546021,1056.312256 
	C989.484741,1060.581787 989.713745,1065.130493 987.581299,1070.409912 
	C984.775330,1076.193726 981.916138,1081.952515 979.175720,1087.767334 
	C974.747986,1097.162842 970.398315,1106.595093 965.523499,1116.481201 
	C962.716064,1122.195435 959.908630,1127.909668 956.861023,1134.112915 
	C952.752136,1126.584839 949.000671,1119.711670 945.135437,1112.090820 
	C940.797302,1103.374390 936.459229,1094.657837 932.092896,1085.164795 
	C931.607544,1083.784912 931.079224,1082.418457 930.643982,1081.022949 
	C928.179749,1073.121094 919.592529,1066.254883 927.692383,1056.381348 
	C916.386475,1056.381348 906.245605,1056.381348 895.288208,1056.381348 
	C903.097290,1060.681885 907.122559,1067.116577 910.134521,1074.508667 
	C911.514343,1077.895020 913.843628,1080.894531 915.870850,1084.835449 
	C920.226990,1093.909790 924.583069,1102.984253 928.999451,1112.801758 
	C935.593506,1126.973633 942.187561,1141.145386 948.781616,1155.317261 
	C949.379456,1155.292114 949.977295,1155.266968 950.575134,1155.241821 
	C956.420959,1142.518188 962.266785,1129.794678 968.692200,1116.704956 
	C969.402344,1115.802612 970.308411,1114.994141 970.792664,1113.983521 
	C976.280762,1102.530273 981.736084,1091.060913 987.124023,1079.560181 
	C988.576660,1076.459229 989.772400,1073.237793 991.561584,1069.610229 
M874.955505,1026.039429 
	C874.926025,1021.682922 874.896606,1017.326355 874.957764,1012.040710 
	C874.957764,1006.130920 874.957764,1000.221191 874.957764,993.532104 
	C866.971619,995.152344 859.568481,996.654358 852.613708,998.065369 
	C855.057800,1002.390686 857.189392,1006.163086 859.126526,1010.842224 
	C859.423157,1015.226196 859.719727,1019.610229 859.928162,1024.926880 
	C859.948547,1030.284546 859.968933,1035.642334 859.409912,1041.597534 
	C859.286377,1050.009033 859.083008,1058.420410 859.085083,1066.831909 
	C859.085754,1069.558228 859.624634,1072.284424 859.931641,1075.886719 
	C859.762939,1077.696899 859.432190,1079.509033 859.454102,1081.316895 
	C859.541809,1088.552734 859.739014,1095.787354 859.891296,1103.955444 
	C859.944641,1111.639771 859.998047,1119.324097 859.972961,1127.883057 
	C858.067505,1137.065796 862.154541,1147.910034 850.598633,1155.286743 
	C862.249817,1155.286743 872.025330,1155.286743 882.059875,1155.286743 
	C875.613647,1145.015503 875.057983,1143.577393 874.991882,1137.484375 
	C874.961304,1134.665405 874.896851,1131.846680 874.972351,1128.092163 
	C874.937561,1120.738647 874.902771,1113.385254 874.972717,1105.095703 
	C874.955872,1096.075928 874.939087,1087.056030 874.991211,1077.096558 
	C874.962708,1066.046021 874.934204,1054.995605 874.949341,1043.020752 
	C874.927002,1037.667114 874.904602,1032.313477 874.955505,1026.039429 
M832.913391,1087.155396 
	C832.913391,1077.254150 832.913391,1067.353027 832.913391,1056.691895 
	C824.704773,1058.434814 817.345093,1059.997437 808.593201,1061.855835 
	C816.350830,1067.485107 817.701477,1074.188110 817.050720,1081.637695 
	C816.951111,1082.777588 817.189148,1083.947021 817.170959,1086.020752 
	C817.227417,1098.044800 817.283875,1110.068726 817.204468,1123.007080 
	C816.254211,1133.990479 820.533752,1146.140503 808.693970,1155.252686 
	C819.880981,1155.252686 829.692078,1155.252686 840.763489,1155.252686 
	C834.028320,1149.912964 832.383057,1143.603271 832.654419,1136.463257 
	C832.810120,1132.364746 832.479309,1128.247925 832.712646,1123.226685 
	C832.722229,1111.517456 832.731873,1099.808105 832.913391,1087.155396 
M787.994263,1134.951172 
	C798.105713,1126.126709 800.142151,1114.643555 798.859070,1101.294678 
	C796.258362,1088.824219 787.936890,1081.104126 776.675537,1077.008789 
	C753.594421,1068.614990 730.233887,1060.989380 706.613708,1052.491333 
	C705.369019,1051.666260 704.135986,1050.822998 702.877808,1050.018799 
	C685.558838,1038.948608 686.833801,1015.141052 705.746948,1006.948486 
	C716.677002,1002.213867 727.667236,1000.059387 739.619263,1001.802429 
	C750.792419,1003.432007 759.910522,1007.922913 765.857361,1017.650391 
	C768.698120,1022.297241 770.619446,1027.498291 773.304443,1032.252197 
	C774.362061,1034.124756 776.354492,1036.758911 777.942139,1036.773560 
	C781.231079,1036.803955 785.217285,1036.176147 787.666992,1034.238770 
	C791.111633,1031.514648 790.695618,1025.378174 787.748230,1021.421204 
	C781.947449,1013.633667 774.140198,1008.239929 765.407288,1004.465576 
	C744.136475,995.272217 722.350281,995.408813 700.819641,1003.139099 
	C686.614319,1008.239258 676.235352,1017.628296 674.365540,1033.738281 
	C673.740784,1039.121338 673.854370,1044.566040 677.862427,1049.794067 
	C679.664978,1052.720459 681.116699,1055.949585 683.334167,1058.517578 
	C690.689575,1067.035645 701.500427,1069.138550 711.382385,1072.753052 
	C733.561523,1080.865356 757.379395,1084.667114 777.869446,1098.742188 
	C779.591919,1102.794067 782.467163,1106.764160 782.761719,1110.917358 
	C783.185242,1116.886230 781.729553,1122.988403 780.572449,1129.470825 
	C774.687805,1139.650024 765.106628,1144.727417 754.452698,1148.216919 
	C737.864197,1153.649902 721.586304,1152.576538 705.953003,1144.920166 
	C696.886169,1140.479980 691.018066,1133.028809 687.863647,1123.353149 
	C686.753784,1119.948730 685.524292,1116.187012 683.180237,1113.682739 
	C680.315308,1110.621826 676.137939,1110.961060 672.676697,1113.551514 
	C668.872620,1116.398438 667.460022,1122.671997 670.366943,1126.617065 
	C673.683960,1131.118652 677.242310,1135.865967 681.744751,1138.998779 
	C703.899719,1154.413940 728.378052,1159.507812 754.767273,1153.141113 
	C767.158875,1150.151489 778.807556,1145.303223 787.994263,1134.951172 
M1295.736694,826.727295 
	C1297.234131,818.505371 1298.731445,810.283386 1300.677246,801.433411 
	C1301.167114,794.645691 1301.657104,787.857910 1302.617554,780.384216 
	C1302.438477,768.599670 1302.259521,756.815186 1302.574219,744.456116 
	C1302.000122,734.556213 1301.528198,724.648865 1300.812012,714.759216 
	C1300.406860,709.163208 1299.600464,703.596252 1299.025391,697.090088 
	C1299.655884,688.511353 1299.873901,679.876221 1301.035767,671.370056 
	C1302.142578,663.266052 1304.139038,655.275391 1305.923950,647.274963 
	C1307.283936,641.178833 1308.528687,635.010803 1310.531006,629.114563 
	C1313.746338,619.646179 1317.545166,610.375854 1321.714233,600.666870 
	C1323.342285,596.738159 1324.810791,592.733459 1326.636230,588.898682 
	C1329.298218,583.306519 1332.644897,578.008545 1334.946533,572.282471 
	C1342.299072,553.990906 1349.796509,535.732605 1356.325928,517.141113 
	C1365.616089,490.689026 1371.095825,463.605194 1368.111938,435.222107 
	C1365.938599,414.549194 1359.933594,395.398499 1347.577271,378.647186 
	C1343.964844,373.749756 1338.598511,370.146210 1333.367554,365.931671 
	C1332.922485,365.937927 1332.477295,365.944153 1332.008179,366.004242 
	C1332.008179,366.004242 1332.048462,365.959900 1332.039551,365.237274 
	C1331.543091,364.431946 1331.218384,363.414856 1330.524902,362.852722 
	C1318.105713,352.787598 1303.578979,348.328796 1287.902832,347.007416 
	C1266.114624,345.170776 1245.988770,351.451630 1225.871216,358.873596 
	C1203.947876,366.961884 1181.606201,373.917786 1159.435303,381.332703 
	C1157.479004,381.986938 1155.437012,382.384949 1152.727539,383.084625 
	C1158.434326,391.450409 1163.732666,399.217255 1169.081299,407.700012 
	C1172.122559,413.377960 1175.441040,418.927399 1178.145142,424.761536 
	C1183.217773,435.705505 1188.894043,446.508179 1192.541016,457.937103 
	C1196.487915,470.306152 1198.868164,483.242462 1201.103760,496.075653 
	C1205.202393,519.602539 1203.800537,542.931030 1196.569824,565.768555 
	C1191.066040,583.152161 1181.623535,598.596252 1172.372070,614.130493 
	C1169.698120,618.620483 1167.419922,623.346191 1164.473633,628.307678 
	C1164.250977,628.852844 1164.028198,629.398071 1163.254639,630.297424 
	C1162.157104,632.167603 1161.059570,634.037720 1159.376831,636.272095 
	C1143.921387,660.312866 1132.036133,685.816284 1128.245605,714.454041 
	C1127.439331,720.545227 1128.005981,726.818176 1127.948853,733.926880 
	C1128.042603,737.605164 1128.136353,741.283508 1128.301514,745.417847 
	C1128.457642,745.702332 1128.688843,745.898376 1129.005249,746.818604 
	C1129.273193,748.111328 1129.491333,749.416748 1129.816895,750.694763 
	C1132.554321,761.441162 1133.061523,761.869812 1143.795288,762.926880 
	C1145.276245,763.072754 1146.852661,763.056274 1148.203979,763.580872 
	C1157.122681,767.043335 1165.991821,770.633301 1175.109375,774.809998 
	C1177.724854,777.049194 1180.669678,779.004700 1182.890747,781.583557 
	C1188.394897,787.974060 1193.568237,794.649475 1198.980713,801.901917 
	C1202.019775,808.587341 1205.058838,815.272766 1208.132202,822.725220 
	C1210.181641,830.154236 1212.231079,837.583313 1214.252930,845.806213 
	C1215.325439,852.226929 1216.397949,858.647583 1217.317993,865.886902 
	C1217.605225,869.029663 1217.998901,872.167053 1218.158936,875.316284 
	C1218.581177,883.626770 1218.908691,891.942200 1219.261475,900.256165 
	C1219.796997,912.881226 1229.473999,918.205383 1240.405762,911.854614 
	C1241.696167,911.104980 1243.046753,910.314270 1244.054321,909.245483 
	C1253.500854,899.226257 1263.601807,889.705383 1272.030029,878.884949 
	C1277.950806,871.283630 1281.566528,861.887024 1286.761841,852.816101 
	C1289.602905,844.322632 1292.443970,835.829163 1295.736694,826.727295 
M1044.137329,894.623901 
	C1044.718140,886.333557 1045.151611,878.029785 1045.908691,869.755554 
	C1047.829834,848.760071 1052.000366,828.273804 1061.045776,809.077393 
	C1068.818848,792.581604 1079.816650,778.845947 1096.236206,770.097290 
	C1106.235107,764.769714 1117.058838,762.428894 1128.262329,761.695129 
	C1127.285522,750.985046 1122.277100,743.889954 1112.950684,741.661133 
	C1107.726074,740.412598 1102.024780,740.054443 1096.678955,740.621460 
	C1079.892334,742.401917 1063.144653,743.307312 1046.363037,741.024048 
	C1026.445923,738.314148 1009.368591,721.940979 1006.534668,702.918335 
	C1004.991516,692.560242 1009.152893,683.595764 1014.033020,675.002075 
	C1020.115173,664.291626 1021.047241,653.751892 1014.657959,642.851318 
	C1011.679077,637.768982 1012.040771,632.358398 1015.441467,627.775452 
	C1018.093567,624.201111 1021.785522,621.398315 1025.152466,618.119202 
	C1025.063477,618.005676 1024.675049,617.474365 1024.251099,616.973389 
	C1010.370789,600.573120 1015.406128,593.502136 1026.420044,584.673035 
	C1026.679688,584.464905 1026.925659,584.238403 1027.168091,584.010010 
	C1033.403076,578.134338 1034.807861,571.342102 1031.068359,563.630859 
	C1029.699097,560.807312 1027.856445,558.185730 1026.021240,555.621277 
	C1021.862671,549.810120 1017.212341,544.319031 1013.423889,538.282410 
	C1007.752563,529.245667 1009.649292,520.764832 1018.729553,515.131836 
	C1024.489868,511.558411 1030.841797,508.914490 1037.008667,506.025238 
	C1048.294678,500.737701 1060.188232,496.490875 1070.813477,490.118073 
	C1082.451660,483.137909 1092.718384,474.083435 1094.351807,459.030548 
	C1095.194580,451.262390 1096.279419,443.514862 1096.904663,435.729889 
	C1098.247070,419.020905 1101.215576,402.744904 1108.587891,387.508301 
	C1109.261230,386.116547 1109.650757,384.587463 1110.236694,382.940613 
	C1084.714722,377.536743 1061.285889,367.989502 1037.672974,359.001862 
	C1018.117676,351.558655 998.354736,345.289520 976.977051,347.023376 
	C949.898560,349.219604 928.168396,360.899384 913.246887,383.815308 
	C896.136841,410.092316 892.876038,439.372589 896.472534,469.731354 
	C899.670776,496.728271 908.396667,522.235229 918.781494,547.199402 
	C929.834961,573.770752 941.729858,600.014648 952.008972,626.879272 
	C962.342102,653.885010 966.715088,682.021545 963.866516,711.134460 
	C960.766052,742.822266 959.129517,774.546265 963.912231,806.279175 
	C969.053833,840.393250 981.597412,871.071411 1005.664978,896.272461 
	C1011.467529,902.348206 1018.040955,908.058167 1025.200928,912.376160 
	C1034.736206,918.126831 1043.818237,912.190369 1044.018311,901.074707 
	C1044.051270,899.242188 1044.095459,897.409973 1044.137329,894.623901 
M1344.786865,1142.448608 
	C1364.962524,1098.037476 1385.138062,1053.626465 1405.313599,1009.215332 
	C1406.324829,1010.203064 1406.495361,1010.848755 1406.498047,1011.495117 
	C1406.671387,1053.987061 1406.869751,1096.479004 1406.907471,1138.971069 
	C1406.910034,1141.869385 1406.077026,1144.928101 1404.943359,1147.622070 
	C1403.852417,1150.214355 1401.866211,1152.429932 1400.036499,1155.165283 
	C1410.186035,1155.165283 1419.723389,1155.165283 1430.764648,1155.165283 
	C1422.507324,1149.469727 1422.455688,1141.913208 1422.457642,1134.319824 
	C1422.467407,1096.991333 1422.442871,1059.662720 1422.475830,1022.334229 
	C1422.483398,1013.796387 1421.321899,1004.887512 1429.645142,998.434692 
	C1423.573730,997.987305 1418.090942,998.218079 1412.638306,997.913696 
	C1408.333496,997.673401 1405.914673,999.342834 1404.171631,1003.234619 
	C1386.479736,1042.735474 1368.676514,1082.186523 1350.883057,1121.641968 
	C1349.308716,1125.133057 1347.583252,1128.556274 1345.423462,1133.063965 
	C1342.250244,1126.153687 1339.591797,1120.440918 1336.996338,1114.699707 
	C1320.055054,1077.226196 1303.141968,1039.740112 1286.144043,1002.292358 
	C1285.442871,1000.747803 1284.048218,998.433044 1282.872437,998.368042 
	C1276.065796,997.992249 1269.227905,998.184509 1261.120850,998.184509 
	C1267.871338,1003.610779 1269.054810,1009.847229 1268.977905,1016.544922 
	C1268.836426,1028.871338 1268.540039,1041.197876 1268.564819,1053.524048 
	C1268.618652,1080.349976 1268.758667,1107.176392 1269.029419,1134.000977 
	C1269.109253,1141.916260 1268.482300,1149.382935 1260.587891,1155.019043 
	C1267.448975,1155.019043 1273.196167,1155.019043 1279.881470,1155.019043 
	C1273.101318,1149.994263 1271.694580,1143.668701 1271.696045,1136.763672 
	C1271.704346,1096.266846 1271.705566,1055.770142 1271.738770,1015.273315 
	C1271.739502,1014.300781 1272.086060,1013.328491 1272.271240,1012.356079 
	C1272.612915,1012.310669 1272.954468,1012.265259 1273.296143,1012.219849 
	C1294.888184,1059.870361 1316.480347,1107.520996 1338.461670,1156.030396 
	C1340.736206,1151.185303 1342.621704,1147.168823 1344.786865,1142.448608 
M1582.839966,1154.810425 
	C1599.321777,1157.735352 1613.718872,1153.871704 1626.185303,1139.969849 
	C1626.185303,1146.181030 1626.185303,1150.692993 1626.185303,1154.748779 
	C1634.189819,1152.534058 1641.717407,1150.451294 1649.620239,1148.264771 
	C1641.184692,1143.691650 1641.370850,1135.693237 1641.398560,1127.506836 
	C1641.519897,1091.713013 1641.492920,1055.918457 1641.417114,1020.124390 
	C1641.400024,1012.010559 1640.952881,1003.890503 1650.763062,998.502930 
	C1641.364868,996.644592 1633.704102,995.129761 1625.170776,993.442383 
	C1625.170776,1019.084412 1625.170776,1043.848999 1625.170776,1070.035156 
	C1612.656860,1056.872437 1598.446533,1053.710083 1582.591064,1057.065674 
	C1563.928833,1061.015381 1551.093506,1072.200806 1545.414429,1090.270264 
	C1539.674072,1108.534302 1543.019165,1125.387939 1556.364014,1139.862549 
	C1563.442871,1147.540771 1572.634644,1151.167114 1582.839966,1154.810425 
M1524.127197,1073.390625 
	C1518.862061,1066.259399 1512.372803,1060.743774 1503.790527,1057.995972 
	C1468.943848,1046.838745 1434.223755,1077.861206 1440.355835,1114.219482 
	C1444.240356,1137.251587 1466.401001,1156.603760 1489.928589,1155.736694 
	C1502.510254,1155.272949 1512.489990,1151.121460 1520.844727,1142.223022 
	C1521.942627,1141.053467 1522.385986,1139.269409 1523.132568,1137.770020 
	C1522.632812,1137.434814 1522.133057,1137.099487 1521.633301,1136.764160 
	C1519.661255,1138.646484 1517.683228,1140.522461 1515.718262,1142.412109 
	C1501.014893,1156.550781 1480.916016,1155.513550 1467.981079,1139.801270 
	C1459.032349,1128.930908 1456.643921,1116.087158 1456.837158,1102.376099 
	C1456.906982,1097.413940 1458.487793,1095.734985 1463.519165,1095.790161 
	C1484.334106,1096.018677 1505.154541,1095.755859 1525.969604,1095.984619 
	C1530.262817,1096.031738 1531.635742,1094.311890 1530.559082,1090.765381 
	C1528.836182,1085.090332 1526.554565,1079.585083 1524.127197,1073.390625 
M1130.292358,1149.003174 
	C1129.502686,1146.019653 1128.088989,1143.048218 1128.031250,1140.050659 
	C1127.781738,1127.074585 1127.951782,1114.090698 1127.904663,1101.109985 
	C1127.898071,1099.307617 1127.772583,1097.438110 1127.284058,1095.718384 
	C1126.114380,1091.601074 1122.641357,1090.578735 1119.298950,1093.368896 
	C1114.762573,1097.155640 1112.025146,1101.893555 1112.052612,1108.002319 
	C1112.088623,1115.990479 1111.729004,1123.995361 1112.135864,1131.962646 
	C1112.564819,1140.363403 1111.902832,1148.204102 1105.514648,1154.503052 
	C1105.394409,1154.621704 1105.616699,1155.087769 1105.635742,1155.180664 
	C1115.409546,1155.180664 1125.107056,1155.180664 1135.485718,1155.180664 
	C1133.464600,1152.825195 1132.096680,1151.231201 1130.292358,1149.003174 
M815.812256,1039.533447 
	C819.188232,1043.855469 823.944031,1044.982544 827.822571,1042.379639 
	C831.869751,1039.663574 833.472046,1033.470459 831.093872,1029.735962 
	C828.555237,1025.749634 822.442017,1024.185547 818.383240,1026.483887 
	C813.890747,1029.027832 812.839661,1033.367310 815.812256,1039.533447 
z"/>
<path fill="#49C0E5" opacity="1.000000" stroke="none" 
	d="
M1044.135864,895.100708 
	C1044.095459,897.409973 1044.051270,899.242188 1044.018311,901.074707 
	C1043.818237,912.190369 1034.736206,918.126831 1025.200928,912.376160 
	C1018.040955,908.058167 1011.467529,902.348206 1005.664978,896.272461 
	C981.597412,871.071411 969.053833,840.393250 963.912231,806.279175 
	C959.129517,774.546265 960.766052,742.822266 963.866516,711.134460 
	C966.715088,682.021545 962.342102,653.885010 952.008972,626.879272 
	C941.729858,600.014648 929.834961,573.770752 918.781494,547.199402 
	C908.396667,522.235229 899.670776,496.728271 896.472534,469.731354 
	C892.876038,439.372589 896.136841,410.092316 913.246887,383.815308 
	C928.168396,360.899384 949.898560,349.219604 976.977051,347.023376 
	C998.354736,345.289520 1018.117676,351.558655 1037.672974,359.001862 
	C1061.285889,367.989502 1084.714722,377.536743 1110.236694,382.940613 
	C1109.650757,384.587463 1109.261230,386.116547 1108.587891,387.508301 
	C1101.215576,402.744904 1098.247070,419.020905 1096.904663,435.729889 
	C1096.279419,443.514862 1095.194580,451.262390 1094.351807,459.030548 
	C1092.718384,474.083435 1082.451660,483.137909 1070.813477,490.118073 
	C1060.188232,496.490875 1048.294678,500.737701 1037.008667,506.025238 
	C1030.841797,508.914490 1024.489868,511.558411 1018.729553,515.131836 
	C1009.649292,520.764832 1007.752563,529.245667 1013.423889,538.282410 
	C1017.212341,544.319031 1021.862671,549.810120 1026.021240,555.621277 
	C1027.856445,558.185730 1029.699097,560.807312 1031.068359,563.630859 
	C1034.807861,571.342102 1033.403076,578.134338 1027.168091,584.010010 
	C1026.925659,584.238403 1026.679688,584.464905 1026.420044,584.673035 
	C1015.406128,593.502136 1010.370789,600.573120 1024.251099,616.973389 
	C1024.675049,617.474365 1025.063477,618.005676 1025.152466,618.119202 
	C1021.785522,621.398315 1018.093567,624.201111 1015.441467,627.775452 
	C1012.040771,632.358398 1011.679077,637.768982 1014.657959,642.851318 
	C1021.047241,653.751892 1020.115173,664.291626 1014.033020,675.002075 
	C1009.152893,683.595764 1004.991516,692.560242 1006.534668,702.918335 
	C1009.368591,721.940979 1026.445923,738.314148 1046.363037,741.024048 
	C1063.144653,743.307312 1079.892334,742.401917 1096.678955,740.621460 
	C1102.024780,740.054443 1107.726074,740.412598 1112.950684,741.661133 
	C1122.277100,743.889954 1127.285522,750.985046 1128.262329,761.695129 
	C1117.058838,762.428894 1106.235107,764.769714 1096.236206,770.097290 
	C1079.816650,778.845947 1068.818848,792.581604 1061.045776,809.077393 
	C1052.000366,828.273804 1047.829834,848.760071 1045.908691,869.755554 
	C1045.151611,878.029785 1044.718140,886.333557 1044.135864,895.100708 
z"/>
<path fill="#E5E5E5" opacity="1.000000" stroke="none" 
	d="
M1334.036011,365.949646 
	C1338.598511,370.146210 1343.964844,373.749756 1347.577271,378.647186 
	C1359.933594,395.398499 1365.938599,414.549194 1368.111938,435.222107 
	C1371.095825,463.605194 1365.616089,490.689026 1356.325928,517.141113 
	C1349.796509,535.732605 1342.299072,553.990906 1334.946533,572.282471 
	C1332.644897,578.008545 1329.298218,583.306519 1326.636230,588.898682 
	C1324.810791,592.733459 1323.342285,596.738159 1321.039062,600.866821 
	C1318.290894,602.620117 1315.578491,603.777161 1314.307617,605.827576 
	C1312.735596,608.363708 1311.079224,609.429688 1308.324219,608.981445 
	C1305.909058,608.588501 1303.522583,607.717773 1301.111816,607.671875 
	C1297.940674,607.611389 1294.711548,607.910400 1291.595581,608.511719 
	C1289.197266,608.974731 1286.997314,610.440063 1284.600708,610.942993 
	C1276.833618,612.572693 1269.015869,613.961182 1261.220947,615.459839 
	C1260.908203,615.520020 1260.514893,615.678467 1260.351807,615.920837 
	C1257.608032,619.995422 1253.400391,618.761902 1249.551270,619.060913 
	C1247.684448,619.205994 1244.929199,619.437683 1244.187988,620.631226 
	C1240.165283,627.108032 1234.906128,624.974121 1229.294434,623.857300 
	C1226.166748,623.234802 1222.663208,624.090637 1219.404053,624.689209 
	C1217.314697,625.073059 1215.426270,626.521790 1213.337036,626.940857 
	C1205.394653,628.534241 1197.406006,629.895508 1189.440186,631.373474 
	C1188.970947,631.460571 1188.358276,631.693604 1188.137329,632.056519 
	C1185.861816,635.792786 1182.148071,634.649536 1178.792603,635.086121 
	C1175.792480,635.476501 1172.687378,636.206726 1169.992798,637.529114 
	C1166.047729,639.465393 1162.772461,639.805481 1159.962158,635.907837 
	C1161.059570,634.037720 1162.157104,632.167603 1163.848877,630.116516 
	C1164.615479,629.278381 1164.787964,628.621155 1164.960327,627.963867 
	C1167.419922,623.346191 1169.698120,618.620483 1172.372070,614.130493 
	C1181.623535,598.596252 1191.066040,583.152161 1196.569824,565.768555 
	C1203.800537,542.931030 1205.202393,519.602539 1201.103760,496.075653 
	C1198.868164,483.242462 1196.487915,470.306152 1192.541016,457.937103 
	C1188.894043,446.508179 1183.217773,435.705505 1178.145142,424.761536 
	C1175.441040,418.927399 1172.122559,413.377960 1169.405762,407.286346 
	C1172.598511,405.254181 1175.288574,402.860779 1178.366455,402.152374 
	C1191.149048,399.210419 1204.065186,396.854553 1216.901367,394.137604 
	C1234.087036,390.500000 1251.267700,386.832062 1268.404297,382.972015 
	C1278.177124,380.770691 1287.853516,378.143188 1297.581909,375.741974 
	C1304.109497,374.130798 1310.581787,372.052368 1317.210083,371.166779 
	C1322.653198,370.439545 1328.599854,372.075500 1332.048462,365.959900 
	C1332.048462,365.959900 1332.008179,366.004242 1332.046387,366.283447 
	C1332.493896,366.889221 1332.903198,367.215790 1333.312622,367.542297 
	C1333.553711,367.011414 1333.794922,366.480530 1334.036011,365.949646 
z"/>
<path fill="#DBDBDB" opacity="1.000000" stroke="none" 
	d="
M1159.669434,636.089966 
	C1162.772461,639.805481 1166.047729,639.465393 1169.992798,637.529114 
	C1172.687378,636.206726 1175.792480,635.476501 1178.792603,635.086121 
	C1182.148071,634.649536 1185.861816,635.792786 1188.137329,632.056519 
	C1188.358276,631.693604 1188.970947,631.460571 1189.440186,631.373474 
	C1197.406006,629.895508 1205.394653,628.534241 1213.337036,626.940857 
	C1215.426270,626.521790 1217.314697,625.073059 1219.404053,624.689209 
	C1222.663208,624.090637 1226.166748,623.234802 1229.294434,623.857300 
	C1234.906128,624.974121 1240.165283,627.108032 1244.187988,620.631226 
	C1244.929199,619.437683 1247.684448,619.205994 1249.551270,619.060913 
	C1253.400391,618.761902 1257.608032,619.995422 1260.351807,615.920837 
	C1260.514893,615.678467 1260.908203,615.520020 1261.220947,615.459839 
	C1269.015869,613.961182 1276.833618,612.572693 1284.600708,610.942993 
	C1286.997314,610.440063 1289.197266,608.974731 1291.595581,608.511719 
	C1294.711548,607.910400 1297.940674,607.611389 1301.111816,607.671875 
	C1303.522583,607.717773 1305.909058,608.588501 1308.324219,608.981445 
	C1311.079224,609.429688 1312.735596,608.363708 1314.307617,605.827576 
	C1315.578491,603.777161 1318.290894,602.620117 1320.730591,601.044312 
	C1317.545166,610.375854 1313.746338,619.646179 1310.531006,629.114563 
	C1308.528687,635.010803 1307.283936,641.178833 1305.923950,647.274963 
	C1304.139038,655.275391 1302.142578,663.266052 1301.035767,671.370056 
	C1299.873901,679.876221 1299.655884,688.511353 1298.587646,697.602173 
	C1294.532593,698.410339 1290.876465,698.469238 1287.306030,699.052429 
	C1280.180542,700.216309 1273.052368,701.450623 1266.017578,703.058960 
	C1258.354736,704.810852 1250.804932,707.052734 1243.188599,709.014099 
	C1240.004761,709.834045 1236.781006,710.502380 1233.567383,711.203003 
	C1227.691895,712.483826 1221.816162,713.765015 1215.928833,714.989624 
	C1213.368530,715.522156 1210.747803,715.784302 1208.209473,716.397400 
	C1202.233398,717.840698 1196.294922,719.438110 1190.331909,720.936401 
	C1188.425293,721.415405 1186.498535,721.826843 1184.565674,722.186401 
	C1177.624512,723.477600 1170.711060,724.995422 1163.719360,725.908203 
	C1159.231934,726.494080 1154.238770,724.890503 1151.268921,730.041809 
	C1150.951050,730.593140 1149.830322,730.857178 1149.049194,730.938232 
	C1142.017090,731.668030 1134.977661,732.327393 1127.940308,733.007385 
	C1128.005981,726.818176 1127.439331,720.545227 1128.245605,714.454041 
	C1132.036133,685.816284 1143.921387,660.312866 1159.669434,636.089966 
z"/>
<path fill="#C9C9C9" opacity="1.000000" stroke="none" 
	d="
M1127.944580,733.467163 
	C1134.977661,732.327393 1142.017090,731.668030 1149.049194,730.938232 
	C1149.830322,730.857178 1150.951050,730.593140 1151.268921,730.041809 
	C1154.238770,724.890503 1159.231934,726.494080 1163.719360,725.908203 
	C1170.711060,724.995422 1177.624512,723.477600 1184.565674,722.186401 
	C1186.498535,721.826843 1188.425293,721.415405 1190.331909,720.936401 
	C1196.294922,719.438110 1202.233398,717.840698 1208.209473,716.397400 
	C1210.747803,715.784302 1213.368530,715.522156 1215.928833,714.989624 
	C1221.816162,713.765015 1227.691895,712.483826 1233.567383,711.203003 
	C1236.781006,710.502380 1240.004761,709.834045 1243.188599,709.014099 
	C1250.804932,707.052734 1258.354736,704.810852 1266.017578,703.058960 
	C1273.052368,701.450623 1280.180542,700.216309 1287.306030,699.052429 
	C1290.876465,698.469238 1294.532593,698.410339 1298.562378,698.065186 
	C1299.600464,703.596252 1300.406860,709.163208 1300.812012,714.759216 
	C1301.528198,724.648865 1302.000122,734.556213 1301.940186,744.576782 
	C1297.393066,744.713562 1293.337158,744.068237 1289.594727,744.875854 
	C1280.259399,746.890625 1271.086914,749.647705 1261.810547,751.951843 
	C1253.339722,754.055908 1244.713989,755.233582 1236.094116,756.572327 
	C1220.978394,758.920166 1206.270752,763.882385 1191.379150,767.698425 
	C1188.212769,768.509766 1184.933838,769.846008 1181.807861,769.608398 
	C1177.835327,769.306519 1175.872070,770.653015 1174.877197,774.181763 
	C1165.991821,770.633301 1157.122681,767.043335 1148.203979,763.580872 
	C1146.852661,763.056274 1145.276245,763.072754 1143.795288,762.926880 
	C1133.061523,761.869812 1132.554321,761.441162 1129.816895,750.694763 
	C1129.491333,749.416748 1129.273193,748.111328 1128.930542,746.199341 
	C1128.712036,745.308228 1128.503418,745.102173 1128.229980,744.961792 
	C1128.136353,741.283508 1128.042603,737.605164 1127.944580,733.467163 
z"/>
<path fill="#4CC1E5" opacity="1.000000" stroke="none" 
	d="
M1344.646973,1142.800537 
	C1342.621704,1147.168823 1340.736206,1151.185303 1338.461670,1156.030396 
	C1316.480347,1107.520996 1294.888184,1059.870361 1273.296143,1012.219849 
	C1272.954468,1012.265259 1272.612915,1012.310669 1272.271240,1012.356079 
	C1272.086060,1013.328491 1271.739502,1014.300781 1271.738770,1015.273315 
	C1271.705566,1055.770142 1271.704346,1096.266846 1271.696045,1136.763672 
	C1271.694580,1143.668701 1273.101318,1149.994263 1279.881470,1155.019043 
	C1273.196167,1155.019043 1267.448975,1155.019043 1260.587891,1155.019043 
	C1268.482300,1149.382935 1269.109253,1141.916260 1269.029419,1134.000977 
	C1268.758667,1107.176392 1268.618652,1080.349976 1268.564819,1053.524048 
	C1268.540039,1041.197876 1268.836426,1028.871338 1268.977905,1016.544922 
	C1269.054810,1009.847229 1267.871338,1003.610779 1261.120850,998.184509 
	C1269.227905,998.184509 1276.065796,997.992249 1282.872437,998.368042 
	C1284.048218,998.433044 1285.442871,1000.747803 1286.144043,1002.292358 
	C1303.141968,1039.740112 1320.055054,1077.226196 1336.996338,1114.699707 
	C1339.591797,1120.440918 1342.250244,1126.153687 1345.423462,1133.063965 
	C1347.583252,1128.556274 1349.308716,1125.133057 1350.883057,1121.641968 
	C1368.676514,1082.186523 1386.479736,1042.735474 1404.171631,1003.234619 
	C1405.914673,999.342834 1408.333496,997.673401 1412.638306,997.913696 
	C1418.090942,998.218079 1423.573730,997.987305 1429.645142,998.434692 
	C1421.321899,1004.887512 1422.483398,1013.796387 1422.475830,1022.334229 
	C1422.442871,1059.662720 1422.467407,1096.991333 1422.457642,1134.319824 
	C1422.455688,1141.913208 1422.507324,1149.469727 1430.764648,1155.165283 
	C1419.723389,1155.165283 1410.186035,1155.165283 1400.036499,1155.165283 
	C1401.866211,1152.429932 1403.852417,1150.214355 1404.943359,1147.622070 
	C1406.077026,1144.928101 1406.910034,1141.869385 1406.907471,1138.971069 
	C1406.869751,1096.479004 1406.671387,1053.987061 1406.498047,1011.495117 
	C1406.495361,1010.848755 1406.324829,1010.203064 1405.313599,1009.215332 
	C1385.138062,1053.626465 1364.962524,1098.037476 1344.646973,1142.800537 
z"/>
<path fill="#DAD9D9" opacity="1.000000" stroke="none" 
	d="
M1332.043945,365.598572 
	C1328.599854,372.075500 1322.653198,370.439545 1317.210083,371.166779 
	C1310.581787,372.052368 1304.109497,374.130798 1297.581909,375.741974 
	C1287.853516,378.143188 1278.177124,380.770691 1268.404297,382.972015 
	C1251.267700,386.832062 1234.087036,390.500000 1216.901367,394.137604 
	C1204.065186,396.854553 1191.149048,399.210419 1178.366455,402.152374 
	C1175.288574,402.860779 1172.598511,405.254181 1169.380615,406.928406 
	C1163.732666,399.217255 1158.434326,391.450409 1152.727539,383.084625 
	C1155.437012,382.384949 1157.479004,381.986938 1159.435303,381.332703 
	C1181.606201,373.917786 1203.947876,366.961884 1225.871216,358.873596 
	C1245.988770,351.451630 1266.114624,345.170776 1287.902832,347.007416 
	C1303.578979,348.328796 1318.105713,352.787598 1330.524902,362.852722 
	C1331.218384,363.414856 1331.543091,364.431946 1332.043945,365.598572 
z"/>
<path fill="#4CC1E5" opacity="1.000000" stroke="none" 
	d="
M1582.453613,1154.674805 
	C1572.634644,1151.167114 1563.442871,1147.540771 1556.364014,1139.862549 
	C1543.019165,1125.387939 1539.674072,1108.534302 1545.414429,1090.270264 
	C1551.093506,1072.200806 1563.928833,1061.015381 1582.591064,1057.065674 
	C1598.446533,1053.710083 1612.656860,1056.872437 1625.170776,1070.035156 
	C1625.170776,1043.848999 1625.170776,1019.084412 1625.170776,993.442383 
	C1633.704102,995.129761 1641.364868,996.644592 1650.763062,998.502930 
	C1640.952881,1003.890503 1641.400024,1012.010559 1641.417114,1020.124390 
	C1641.492920,1055.918457 1641.519897,1091.713013 1641.398560,1127.506836 
	C1641.370850,1135.693237 1641.184692,1143.691650 1649.620239,1148.264771 
	C1641.717407,1150.451294 1634.189819,1152.534058 1626.185303,1154.748779 
	C1626.185303,1150.692993 1626.185303,1146.181030 1626.185303,1139.969849 
	C1613.718872,1153.871704 1599.321777,1157.735352 1582.453613,1154.674805 
M1625.989014,1092.505127 
	C1625.989990,1088.506592 1626.211792,1084.491089 1625.905029,1080.516357 
	C1625.733276,1078.291260 1625.217041,1075.746338 1623.949219,1074.006348 
	C1611.898193,1057.467896 1585.810425,1052.750000 1570.909180,1070.987183 
	C1557.734497,1087.111450 1555.914917,1115.332153 1566.864258,1134.130737 
	C1579.607910,1156.009888 1605.392456,1158.561646 1621.776978,1139.261230 
	C1624.136597,1136.481689 1625.643311,1132.163696 1625.803467,1128.481934 
	C1626.309814,1116.841675 1625.989624,1105.165527 1625.989014,1092.505127 
z"/>
<path fill="#BABABA" opacity="1.000000" stroke="none" 
	d="
M1174.993286,774.495850 
	C1175.872070,770.653015 1177.835327,769.306519 1181.807861,769.608398 
	C1184.933838,769.846008 1188.212769,768.509766 1191.379150,767.698425 
	C1206.270752,763.882385 1220.978394,758.920166 1236.094116,756.572327 
	C1244.713989,755.233582 1253.339722,754.055908 1261.810547,751.951843 
	C1271.086914,749.647705 1280.259399,746.890625 1289.594727,744.875854 
	C1293.337158,744.068237 1297.393066,744.713562 1301.693359,744.864075 
	C1302.259521,756.815186 1302.438477,768.599670 1302.104980,780.539124 
	C1301.373047,779.502380 1301.153809,778.310669 1301.137817,778.223816 
	C1296.605591,778.844299 1292.356079,779.265076 1288.169800,780.031433 
	C1278.307251,781.837097 1268.366211,783.376770 1258.658325,785.822815 
	C1247.051270,788.747375 1235.594482,792.198608 1223.565308,793.033142 
	C1221.771118,793.157654 1220.002197,793.689270 1218.229492,794.070374 
	C1213.736206,795.036743 1209.154297,795.733337 1204.796021,797.126526 
	C1202.610352,797.825195 1200.835205,799.808350 1198.874390,801.210571 
	C1193.568237,794.649475 1188.394897,787.974060 1182.890747,781.583557 
	C1180.669678,779.004700 1177.724854,777.049194 1174.993286,774.495850 
z"/>
<path fill="#959595" opacity="1.000000" stroke="none" 
	d="
M1286.211548,853.292114 
	C1281.566528,861.887024 1277.950806,871.283630 1272.030029,878.884949 
	C1263.601807,889.705383 1253.500854,899.226257 1244.054321,909.245483 
	C1243.046753,910.314270 1241.696167,911.104980 1240.405762,911.854614 
	C1229.473999,918.205383 1219.796997,912.881226 1219.261475,900.256165 
	C1218.908691,891.942200 1218.581177,883.626770 1218.158936,875.316284 
	C1217.998901,872.167053 1217.605225,869.029663 1217.712891,865.528809 
	C1219.899536,865.526550 1221.865112,866.541870 1223.453125,866.123657 
	C1230.266846,864.328918 1236.916260,861.913940 1243.724854,860.096619 
	C1253.754883,857.419495 1263.805908,854.735657 1273.980713,852.727844 
	C1277.869141,851.960571 1282.123779,853.049194 1286.211548,853.292114 
z"/>
<path fill="#AFAFAF" opacity="1.000000" stroke="none" 
	d="
M1198.927490,801.556274 
	C1200.835205,799.808350 1202.610352,797.825195 1204.796021,797.126526 
	C1209.154297,795.733337 1213.736206,795.036743 1218.229492,794.070374 
	C1220.002197,793.689270 1221.771118,793.157654 1223.565308,793.033142 
	C1235.594482,792.198608 1247.051270,788.747375 1258.658325,785.822815 
	C1268.366211,783.376770 1278.307251,781.837097 1288.169800,780.031433 
	C1292.356079,779.265076 1296.605591,778.844299 1301.137817,778.223816 
	C1301.153809,778.310669 1301.373047,779.502380 1301.869751,780.882080 
	C1301.657104,787.857910 1301.167114,794.645691 1300.064209,801.775146 
	C1296.656982,803.077942 1293.924683,804.346252 1291.053345,804.925964 
	C1287.048096,805.734558 1282.885376,805.770752 1278.886475,806.601562 
	C1272.514160,807.925598 1266.227539,809.658691 1259.892822,811.168884 
	C1253.663940,812.653870 1247.291504,813.674438 1241.213867,815.622498 
	C1232.439819,818.434937 1223.769043,821.300720 1214.384888,821.054932 
	C1212.298584,821.000244 1210.194092,821.638794 1208.098022,821.958130 
	C1205.058838,815.272766 1202.019775,808.587341 1198.927490,801.556274 
z"/>
<path fill="#4CC1E5" opacity="1.000000" stroke="none" 
	d="
M1524.318237,1073.699219 
	C1526.554565,1079.585083 1528.836182,1085.090332 1530.559082,1090.765381 
	C1531.635742,1094.311890 1530.262817,1096.031738 1525.969604,1095.984619 
	C1505.154541,1095.755859 1484.334106,1096.018677 1463.519165,1095.790161 
	C1458.487793,1095.734985 1456.906982,1097.413940 1456.837158,1102.376099 
	C1456.643921,1116.087158 1459.032349,1128.930908 1467.981079,1139.801270 
	C1480.916016,1155.513550 1501.014893,1156.550781 1515.718262,1142.412109 
	C1517.683228,1140.522461 1519.661255,1138.646484 1521.633301,1136.764160 
	C1522.133057,1137.099487 1522.632812,1137.434814 1523.132568,1137.770020 
	C1522.385986,1139.269409 1521.942627,1141.053467 1520.844727,1142.223022 
	C1512.489990,1151.121460 1502.510254,1155.272949 1489.928589,1155.736694 
	C1466.401001,1156.603760 1444.240356,1137.251587 1440.355835,1114.219482 
	C1434.223755,1077.861206 1468.943848,1046.838745 1503.790527,1057.995972 
	C1512.372803,1060.743774 1518.862061,1066.259399 1524.318237,1073.699219 
M1496.481323,1059.551636 
	C1478.306641,1055.328247 1460.856445,1069.300049 1458.770874,1092.613892 
	C1477.350952,1092.613892 1495.924316,1092.613892 1514.473511,1092.613892 
	C1515.956299,1076.787964 1508.273682,1062.987549 1496.481323,1059.551636 
z"/>
<path fill="#A7A7A7" opacity="1.000000" stroke="none" 
	d="
M1208.115112,822.341675 
	C1210.194092,821.638794 1212.298584,821.000244 1214.384888,821.054932 
	C1223.769043,821.300720 1232.439819,818.434937 1241.213867,815.622498 
	C1247.291504,813.674438 1253.663940,812.653870 1259.892822,811.168884 
	C1266.227539,809.658691 1272.514160,807.925598 1278.886475,806.601562 
	C1282.885376,805.770752 1287.048096,805.734558 1291.053345,804.925964 
	C1293.924683,804.346252 1296.656982,803.077942 1299.840088,802.089172 
	C1298.731445,810.283386 1297.234131,818.505371 1295.269043,826.718506 
	C1294.355835,826.518005 1293.846558,826.076294 1293.474121,826.171143 
	C1283.979492,828.588684 1274.504883,831.084839 1265.014771,833.520020 
	C1255.201294,836.038330 1245.412109,838.668152 1235.541748,840.942688 
	C1228.515137,842.561951 1221.371826,843.673950 1214.280518,845.012329 
	C1212.231079,837.583313 1210.181641,830.154236 1208.115112,822.341675 
z"/>
<path fill="#C3C3C3" opacity="1.000000" stroke="none" 
	d="
M706.988342,1053.047607 
	C730.233887,1060.989380 753.594421,1068.614990 776.675537,1077.008789 
	C787.936890,1081.104126 796.258362,1088.824219 798.427917,1101.659424 
	C796.078796,1101.755249 794.141418,1101.582031 792.246643,1101.198364 
	C787.333862,1100.203857 782.439819,1099.116699 777.538330,1098.066406 
	C757.379395,1084.667114 733.561523,1080.865356 711.382385,1072.753052 
	C701.500427,1069.138550 690.689575,1067.035645 683.334167,1058.517578 
	C681.116699,1055.949585 679.664978,1052.720459 678.201965,1049.437988 
	C680.046082,1049.710571 682.065125,1051.295776 682.969971,1050.809082 
	C688.046326,1048.079346 690.889038,1052.723267 694.783142,1053.704956 
	C698.696350,1054.691284 703.217285,1057.914185 706.988342,1053.047607 
z"/>
<path fill="#9F9F9F" opacity="1.000000" stroke="none" 
	d="
M1214.266724,845.409241 
	C1221.371826,843.673950 1228.515137,842.561951 1235.541748,840.942688 
	C1245.412109,838.668152 1255.201294,836.038330 1265.014771,833.520020 
	C1274.504883,831.084839 1283.979492,828.588684 1293.474121,826.171143 
	C1293.846558,826.076294 1294.355835,826.518005 1295.043213,827.022705 
	C1292.443970,835.829163 1289.602905,844.322632 1286.486694,853.054077 
	C1282.123779,853.049194 1277.869141,851.960571 1273.980713,852.727844 
	C1263.805908,854.735657 1253.754883,857.419495 1243.724854,860.096619 
	C1236.916260,861.913940 1230.266846,864.328918 1223.453125,866.123657 
	C1221.865112,866.541870 1219.899536,865.526550 1217.789062,865.119507 
	C1216.397949,858.647583 1215.325439,852.226929 1214.266724,845.409241 
z"/>
<path fill="#CFCFCF" opacity="1.000000" stroke="none" 
	d="
M706.801025,1052.769531 
	C703.217285,1057.914185 698.696350,1054.691284 694.783142,1053.704956 
	C690.889038,1052.723267 688.046326,1048.079346 682.969971,1050.809082 
	C682.065125,1051.295776 680.046082,1049.710571 678.144287,1049.070435 
	C673.854370,1044.566040 673.740784,1039.121338 674.365540,1033.738281 
	C676.235352,1017.628296 686.614319,1008.239258 700.819641,1003.139099 
	C722.350281,995.408813 744.136475,995.272217 765.407288,1004.465576 
	C774.140198,1008.239929 781.947449,1013.633667 787.748230,1021.421204 
	C790.695618,1025.378174 791.111633,1031.514648 787.666992,1034.238770 
	C785.217285,1036.176147 781.231079,1036.803955 777.942139,1036.773560 
	C776.354492,1036.758911 774.362061,1034.124756 773.304443,1032.252197 
	C770.619446,1027.498291 768.698120,1022.297241 765.857361,1017.650391 
	C759.910522,1007.922913 750.792419,1003.432007 739.619263,1001.802429 
	C727.667236,1000.059387 716.677002,1002.213867 705.746948,1006.948486 
	C686.833801,1015.141052 685.558838,1038.948608 702.877808,1050.018799 
	C704.135986,1050.822998 705.369019,1051.666260 706.801025,1052.769531 
z"/>
<path fill="#9F9F9F" opacity="1.000000" stroke="none" 
	d="
M787.398560,1135.167847 
	C778.807556,1145.303223 767.158875,1150.151489 754.767273,1153.141113 
	C728.378052,1159.507812 703.899719,1154.413940 681.744751,1138.998779 
	C677.242310,1135.865967 673.683960,1131.118652 670.366943,1126.617065 
	C667.460022,1122.671997 668.872620,1116.398438 672.676697,1113.551514 
	C676.137939,1110.961060 680.315308,1110.621826 683.180237,1113.682739 
	C685.524292,1116.187012 686.753784,1119.948730 687.863647,1123.353149 
	C691.018066,1133.028809 696.886169,1140.479980 705.953003,1144.920166 
	C721.586304,1152.576538 737.864197,1153.649902 754.452698,1148.216919 
	C765.106628,1144.727417 774.687805,1139.650024 781.200745,1129.244995 
	C786.857422,1128.195679 785.899536,1132.794434 787.398560,1135.167847 
z"/>
<path fill="#C9C9C9" opacity="1.000000" stroke="none" 
	d="
M1116.875732,1087.927002 
	C1112.885254,1094.765259 1108.927002,1101.622681 1104.896484,1108.437256 
	C1099.253784,1117.977051 1093.814819,1127.650635 1087.826416,1136.969849 
	C1077.583130,1152.910034 1056.458496,1159.542114 1039.304810,1154.051514 
	C1022.171997,1148.567627 1010.037354,1138.203491 1004.885986,1120.580688 
	C1004.056946,1117.744507 1003.724609,1114.763184 1003.582458,1111.432617 
	C1009.299133,1111.693848 1014.596130,1112.371338 1019.893127,1113.048828 
	C1021.458862,1122.657104 1024.463135,1131.555786 1030.920776,1139.209473 
	C1042.259155,1152.647949 1062.768921,1157.454468 1077.125977,1142.635742 
	C1088.108154,1131.300415 1095.547607,1117.622192 1103.478271,1104.250366 
	C1106.516113,1099.128174 1109.204346,1093.798706 1112.546387,1088.247314 
	C1114.319214,1087.929565 1115.597534,1087.928223 1116.875732,1087.927002 
z"/>
<path fill="#CFCFCF" opacity="1.000000" stroke="none" 
	d="
M1130.510620,1149.320068 
	C1132.096680,1151.231201 1133.464600,1152.825195 1135.485718,1155.180664 
	C1125.107056,1155.180664 1115.409546,1155.180664 1105.635742,1155.180664 
	C1105.616699,1155.087769 1105.394409,1154.621704 1105.514648,1154.503052 
	C1111.902832,1148.204102 1112.564819,1140.363403 1112.135864,1131.962646 
	C1111.729004,1123.995361 1112.088623,1115.990479 1112.052612,1108.002319 
	C1112.025146,1101.893555 1114.762573,1097.155640 1119.298950,1093.368896 
	C1122.641357,1090.578735 1126.114380,1091.601074 1127.284058,1095.718384 
	C1127.772583,1097.438110 1127.898071,1099.307617 1127.904663,1101.109985 
	C1127.951782,1114.090698 1127.781738,1127.074585 1128.031250,1140.050659 
	C1128.088989,1143.048218 1129.502686,1146.019653 1130.510620,1149.320068 
z"/>
<path fill="#DAD9D9" opacity="1.000000" stroke="none" 
	d="
M1019.931702,1112.578369 
	C1014.596130,1112.371338 1009.299133,1111.693848 1003.560547,1111.034912 
	C1001.818359,1095.843506 1004.862366,1082.075928 1016.762329,1071.440308 
	C1020.144043,1073.237427 1023.140015,1074.714844 1026.111084,1076.556885 
	C1024.916626,1080.185303 1023.792175,1083.466309 1022.567505,1086.709229 
	C1020.383789,1092.492188 1020.649353,1092.968384 1026.694214,1092.972168 
	C1044.113770,1092.982910 1061.533447,1092.955811 1079.179321,1093.209595 
	C1083.615356,1094.018311 1087.824951,1094.560913 1092.034668,1095.103516 
	C1090.289429,1095.391724 1088.544678,1095.926147 1086.798706,1095.930664 
	C1066.550903,1095.983154 1046.301025,1096.098877 1026.056274,1095.846558 
	C1021.142029,1095.785400 1019.508118,1097.451538 1019.931885,1102.155396 
	C1020.228516,1105.447266 1019.976990,1108.788696 1019.931702,1112.578369 
z"/>
<path fill="#C3C3C3" opacity="1.000000" stroke="none" 
	d="
M968.112610,1117.071045 
	C962.266785,1129.794678 956.420959,1142.518188 950.575134,1155.241821 
	C949.977295,1155.266968 949.379456,1155.292114 948.781616,1155.317261 
	C942.187561,1141.145386 935.593506,1126.973633 929.197815,1112.165405 
	C934.680542,1111.965454 939.964844,1112.401978 945.249146,1112.838379 
	C949.000671,1119.711670 952.752136,1126.584839 956.861023,1134.112915 
	C959.908630,1127.909668 962.716064,1122.195435 966.080688,1116.261841 
	C967.129456,1116.385254 967.621033,1116.728149 968.112610,1117.071045 
z"/>
<path fill="#A7A7A7" opacity="1.000000" stroke="none" 
	d="
M832.367554,1124.139282 
	C832.479309,1128.247925 832.810120,1132.364746 832.654419,1136.463257 
	C832.383057,1143.603271 834.028320,1149.912964 840.763489,1155.252686 
	C829.692078,1155.252686 819.880981,1155.252686 808.693970,1155.252686 
	C820.533752,1146.140503 816.254211,1133.990479 817.694580,1122.524658 
	C822.912354,1122.741211 827.639954,1123.440186 832.367554,1124.139282 
z"/>
<path fill="#959595" opacity="1.000000" stroke="none" 
	d="
M1135.731445,1063.623169 
	C1148.578491,1053.783813 1162.165405,1052.024292 1175.972778,1061.060791 
	C1179.204468,1063.175781 1181.647827,1067.425415 1183.006714,1071.212280 
	C1184.386353,1075.056885 1182.357056,1078.832275 1178.271118,1080.534546 
	C1174.150635,1082.251221 1170.373901,1081.456787 1167.577026,1077.768188 
	C1165.768677,1075.383179 1164.242554,1072.785034 1162.446167,1070.390259 
	C1155.586182,1061.244507 1148.201660,1059.672485 1137.410889,1065.013184 
	C1136.394531,1064.476807 1136.062988,1064.050049 1135.731445,1063.623169 
z"/>
<path fill="#AFAFAF" opacity="1.000000" stroke="none" 
	d="
M1026.135986,1076.192261 
	C1023.140015,1074.714844 1020.144043,1073.237427 1017.103394,1071.407959 
	C1034.063354,1051.434692 1066.443237,1050.023682 1083.418457,1068.562988 
	C1086.856079,1072.317505 1088.602173,1077.620972 1090.747314,1082.598633 
	C1086.292480,1082.309326 1082.218384,1081.631836 1078.057129,1080.589233 
	C1077.716919,1079.432739 1077.413818,1078.653442 1077.217773,1077.848022 
	C1073.106689,1060.958496 1057.375977,1054.676636 1042.117554,1062.344849 
	C1036.012573,1065.413086 1031.418091,1071.486694 1026.135986,1076.192261 
z"/>
<path fill="#BABABA" opacity="1.000000" stroke="none" 
	d="
M832.540100,1123.682983 
	C827.639954,1123.440186 822.912354,1122.741211 817.762573,1122.067383 
	C817.283875,1110.068726 817.227417,1098.044800 817.615723,1085.532227 
	C822.954224,1086.062012 827.847839,1087.080444 832.741516,1088.098877 
	C832.731873,1099.808105 832.722229,1111.517456 832.540100,1123.682983 
z"/>
<path fill="#DAD9D9" opacity="1.000000" stroke="none" 
	d="
M915.742310,1084.069458 
	C913.843628,1080.894531 911.514343,1077.895020 910.134521,1074.508667 
	C907.122559,1067.116577 903.097290,1060.681885 895.288208,1056.381348 
	C906.245605,1056.381348 916.386475,1056.381348 927.692383,1056.381348 
	C919.592529,1066.254883 928.179749,1073.121094 930.643982,1081.022949 
	C931.079224,1082.418457 931.607544,1083.784912 931.673706,1085.572754 
	C926.083740,1085.343750 920.913025,1084.706543 915.742310,1084.069458 
z"/>
<path fill="#DAD9D9" opacity="1.000000" stroke="none" 
	d="
M874.905762,1043.945068 
	C874.934204,1054.995605 874.962708,1066.046021 874.558838,1077.551758 
	C869.390076,1077.008179 864.653748,1076.009521 859.917358,1075.010742 
	C859.624634,1072.284424 859.085754,1069.558228 859.085083,1066.831909 
	C859.083008,1058.420410 859.286377,1050.009033 860.108276,1041.299316 
	C865.506348,1041.982544 870.206055,1042.963867 874.905762,1043.945068 
z"/>
<path fill="#AFAFAF" opacity="1.000000" stroke="none" 
	d="
M874.847717,1129.027832 
	C874.896851,1131.846680 874.961304,1134.665405 874.991882,1137.484375 
	C875.057983,1143.577393 875.613647,1145.015503 882.059875,1155.286743 
	C872.025330,1155.286743 862.249817,1155.286743 850.598633,1155.286743 
	C862.154541,1147.910034 858.067505,1137.065796 860.389587,1127.397217 
	C862.999695,1126.931885 865.233643,1126.697754 867.376038,1127.039062 
	C869.907959,1127.442261 872.360718,1128.342773 874.847717,1129.027832 
z"/>
<path fill="#CFCFCF" opacity="1.000000" stroke="none" 
	d="
M832.827454,1087.627197 
	C827.847839,1087.080444 822.954224,1086.062012 817.665771,1085.073242 
	C817.189148,1083.947021 816.951111,1082.777588 817.050720,1081.637695 
	C817.701477,1074.188110 816.350830,1067.485107 808.593201,1061.855835 
	C817.345093,1059.997437 824.704773,1058.434814 832.913391,1056.691895 
	C832.913391,1067.353027 832.913391,1077.254150 832.827454,1087.627197 
z"/>
<path fill="#A7A7A7" opacity="1.000000" stroke="none" 
	d="
M1135.396118,1063.723389 
	C1136.062988,1064.050049 1136.394531,1064.476807 1137.068481,1065.130859 
	C1130.690918,1072.695190 1123.970825,1080.032349 1117.063232,1087.648193 
	C1115.597534,1087.928223 1114.319214,1087.929565 1112.664062,1087.895752 
	C1112.241821,1085.374756 1111.927979,1082.859253 1112.201416,1080.409058 
	C1113.039062,1072.898926 1111.008179,1066.687500 1103.328613,1061.693237 
	C1112.065186,1059.845215 1119.630005,1058.244995 1127.762695,1056.524658 
	C1127.762695,1060.640747 1127.762695,1063.898071 1127.762695,1067.958374 
	C1130.622681,1066.338013 1132.841797,1065.080811 1135.396118,1063.723389 
z"/>
<path fill="#CFCFCF" opacity="1.000000" stroke="none" 
	d="
M915.806580,1084.452393 
	C920.913025,1084.706543 926.083740,1085.343750 931.687744,1085.961182 
	C936.459229,1094.657837 940.797302,1103.374390 945.192322,1112.464600 
	C939.964844,1112.401978 934.680542,1111.965454 929.167664,1111.793823 
	C924.583069,1102.984253 920.226990,1093.909790 915.806580,1084.452393 
z"/>
<path fill="#AFAFAF" opacity="1.000000" stroke="none" 
	d="
M787.696411,1135.059570 
	C785.899536,1132.794434 786.857422,1128.195679 781.452515,1129.026367 
	C781.729553,1122.988403 783.185242,1116.886230 782.761719,1110.917358 
	C782.467163,1106.764160 779.591919,1102.794067 777.703857,1098.404297 
	C782.439819,1099.116699 787.333862,1100.203857 792.246643,1101.198364 
	C794.141418,1101.582031 796.078796,1101.755249 798.410645,1102.040283 
	C800.142151,1114.643555 798.105713,1126.126709 787.696411,1135.059570 
z"/>
<path fill="#C9C9C9" opacity="1.000000" stroke="none" 
	d="
M859.924500,1075.448730 
	C864.653748,1076.009521 869.390076,1077.008179 874.524353,1078.021606 
	C874.939087,1087.056030 874.955872,1096.075928 874.555664,1105.504883 
	C869.390991,1104.950073 864.643433,1103.986206 859.895813,1103.022339 
	C859.739014,1095.787354 859.541809,1088.552734 859.454102,1081.316895 
	C859.432190,1079.509033 859.762939,1077.696899 859.924500,1075.448730 
z"/>
<path fill="#BABABA" opacity="1.000000" stroke="none" 
	d="
M859.893555,1103.488892 
	C864.643433,1103.986206 869.390991,1104.950073 874.503296,1105.972900 
	C874.902771,1113.385254 874.937561,1120.738647 874.910034,1128.560059 
	C872.360718,1128.342773 869.907959,1127.442261 867.376038,1127.039062 
	C865.233643,1126.697754 862.999695,1126.931885 860.428833,1126.959961 
	C859.998047,1119.324097 859.944641,1111.639771 859.893555,1103.488892 
z"/>
<path fill="#9F9F9F" opacity="1.000000" stroke="none" 
	d="
M859.321045,1009.935425 
	C857.189392,1006.163086 855.057800,1002.390686 852.613708,998.065369 
	C859.568481,996.654358 866.971619,995.152344 874.957764,993.532104 
	C874.957764,1000.221191 874.957764,1006.130920 874.507507,1012.517212 
	C869.145203,1011.974304 864.233093,1010.954834 859.321045,1009.935425 
z"/>
<path fill="#CFCFCF" opacity="1.000000" stroke="none" 
	d="
M815.596802,1039.205811 
	C812.839661,1033.367310 813.890747,1029.027832 818.383240,1026.483887 
	C822.442017,1024.185547 828.555237,1025.749634 831.093872,1029.735962 
	C833.472046,1033.470459 831.869751,1039.663574 827.822571,1042.379639 
	C823.944031,1044.982544 819.188232,1043.855469 815.596802,1039.205811 
z"/>
<path fill="#C3C3C3" opacity="1.000000" stroke="none" 
	d="
M874.927551,1043.482910 
	C870.206055,1042.963867 865.506348,1041.982544 860.397949,1041.000610 
	C859.968933,1035.642334 859.948547,1030.284546 860.365723,1024.513550 
	C865.496216,1025.053467 870.189270,1026.006592 874.882263,1026.959839 
	C874.904602,1032.313477 874.927002,1037.667114 874.927551,1043.482910 
z"/>
<path fill="#AFAFAF" opacity="1.000000" stroke="none" 
	d="
M874.918884,1026.499634 
	C870.189270,1026.006592 865.496216,1025.053467 860.409790,1024.047241 
	C859.719727,1019.610229 859.423157,1015.226196 859.223755,1010.388794 
	C864.233093,1010.954834 869.145203,1011.974304 874.462219,1012.981812 
	C874.896606,1017.326355 874.926025,1021.682922 874.918884,1026.499634 
z"/>
<path fill="#DAD9D9" opacity="1.000000" stroke="none" 
	d="
M968.402405,1116.887939 
	C967.621033,1116.728149 967.129456,1116.385254 966.326782,1116.027100 
	C970.398315,1106.595093 974.747986,1097.162842 979.175720,1087.767334 
	C981.916138,1081.952515 984.775330,1076.193726 988.232422,1070.204834 
	C989.617737,1070.023804 990.351929,1070.047729 991.086060,1070.071655 
	C989.772400,1073.237793 988.576660,1076.459229 987.124023,1079.560181 
	C981.736084,1091.060913 976.280762,1102.530273 970.792664,1113.983521 
	C970.308411,1114.994141 969.402344,1115.802612 968.402405,1116.887939 
z"/>
<path fill="#C3C3C3" opacity="1.000000" stroke="none" 
	d="
M1078.144165,1080.954346 
	C1082.218384,1081.631836 1086.292480,1082.309326 1090.794067,1082.985718 
	C1091.531616,1083.109497 1091.725952,1083.334351 1091.631104,1084.031982 
	C1091.778442,1084.885376 1092.099487,1085.366211 1092.420654,1085.847046 
	C1092.504883,1088.743896 1092.589233,1091.640747 1092.354004,1094.820557 
	C1087.824951,1094.560913 1083.615356,1094.018311 1079.216675,1092.776855 
	C1078.733154,1088.370117 1078.438721,1084.662231 1078.144165,1080.954346 
z"/>
<path fill="#C3C3C3" opacity="1.000000" stroke="none" 
	d="
M991.323853,1069.840942 
	C990.351929,1070.047729 989.617737,1070.023804 988.520264,1070.002197 
	C989.713745,1065.130493 989.484741,1060.581787 984.546021,1056.312256 
	C992.163757,1056.312256 998.607483,1056.312256 1004.060791,1056.312256 
	C1000.149475,1060.473511 995.855530,1065.041870 991.323853,1069.840942 
z"/>
<path fill="#AFAFAF" opacity="1.000000" stroke="none" 
	d="
M1092.497192,1085.606934 
	C1092.099487,1085.366211 1091.778442,1084.885376 1091.642090,1084.263184 
	C1092.075806,1084.536865 1092.324829,1084.951782 1092.497192,1085.606934 
z"/>
<path fill="#DBDBDB" opacity="1.000000" stroke="none" 
	d="
M1164.717041,628.135742 
	C1164.787964,628.621155 1164.615479,629.278381 1164.124268,629.939453 
	C1164.028198,629.398071 1164.250977,628.852844 1164.717041,628.135742 
z"/>
<path fill="#DAD9D9" opacity="1.000000" stroke="none" 
	d="
M1333.701782,365.940674 
	C1333.794922,366.480530 1333.553711,367.011414 1333.312622,367.542297 
	C1332.903198,367.215790 1332.493896,366.889221 1332.058350,366.256531 
	C1332.477295,365.944153 1332.922485,365.937927 1333.701782,365.940674 
z"/>
<path fill="#DBDBDB" opacity="1.000000" stroke="none" 
	d="
M1128.265747,745.189819 
	C1128.503418,745.102173 1128.712036,745.308228 1128.925537,745.792969 
	C1128.688843,745.898376 1128.457642,745.702332 1128.265747,745.189819 
z"/>
<path fill="#FDFEFF" opacity="1.000000" stroke="none" 
	d="
M1625.989014,1093.004150 
	C1625.989624,1105.165527 1626.309814,1116.841675 1625.803467,1128.481934 
	C1625.643311,1132.163696 1624.136597,1136.481689 1621.776978,1139.261230 
	C1605.392456,1158.561646 1579.607910,1156.009888 1566.864258,1134.130737 
	C1555.914917,1115.332153 1557.734497,1087.111450 1570.909180,1070.987183 
	C1585.810425,1052.750000 1611.898193,1057.467896 1623.949219,1074.006348 
	C1625.217041,1075.746338 1625.733276,1078.291260 1625.905029,1080.516357 
	C1626.211792,1084.491089 1625.989990,1088.506592 1625.989014,1093.004150 
z"/>
<path fill="#FDFEFF" opacity="1.000000" stroke="none" 
	d="
M1496.866455,1059.692383 
	C1508.273682,1062.987549 1515.956299,1076.787964 1514.473511,1092.613892 
	C1495.924316,1092.613892 1477.350952,1092.613892 1458.770874,1092.613892 
	C1460.856445,1069.300049 1478.306641,1055.328247 1496.866455,1059.692383 
z"/>
<path fill="#FDFEFF" opacity="1.000000" stroke="none" 
	d="
M1078.057129,1080.589111 
	C1078.438721,1084.662231 1078.733154,1088.370117 1078.990356,1092.510742 
	C1061.533447,1092.955811 1044.113770,1092.982910 1026.694214,1092.972168 
	C1020.649353,1092.968384 1020.383789,1092.492188 1022.567505,1086.709229 
	C1023.792175,1083.466309 1024.916626,1080.185303 1026.111084,1076.556885 
	C1031.418091,1071.486694 1036.012573,1065.413086 1042.117554,1062.344849 
	C1057.375977,1054.676636 1073.106689,1060.958496 1077.217773,1077.848022 
	C1077.413818,1078.653442 1077.716919,1079.432739 1078.057129,1080.589111 
z"/>
</svg>